<svg xmlns="http://www.w3.org/2000/svg" width="16" height="16" viewBox="0 0 16 16">
  <path fill="#E74C3C" fill-rule="evenodd" d="M7,14 C10.8659932,14 14,10.8659932 14,7 C14,3.13400675 10.8659932,0 7,0 C3.13400675,0 0,3.13400675 0,7 C0,10.8659932 3.13400675,14 7,14 Z M10.103853,8.03678309 L3.89549444,8.03678309 C3.34320969,8.03678309 2.89549444,7.58906784 2.89549444,7.03678309 C2.89549444,6.48449834 3.34320969,6.03678309 3.89549444,6.03678309 L10.103853,6.03678309 C10.6561377,6.03678309 11.103853,6.48449834 11.103853,7.03678309 C11.103853,7.58906784 10.6561377,8.03678309 10.103853,8.03678309 Z" transform="translate(1 1)"/>
</svg>
