<svg xmlns="http://www.w3.org/2000/svg" width="15" height="15" viewBox="0 0 15 15">
  <path fill="#303036" fill-rule="evenodd" d="M6,6 L1.49309635,6 C0.663885847,6 0,6.67157288 0,7.5 C0,8.33420277 0.668482007,9 1.49309635,9 L6,9 L6,13.5069036 C6,14.3361142 6.67157288,15 7.5,15 C8.33420277,15 9,14.331518 9,13.5069036 L9,9 L13.5069036,9 C14.3361142,9 15,8.32842712 15,7.5 C15,6.66579723 14.331518,6 13.5069036,6 L9,6 L9,1.49309635 C9,0.663885847 8.32842712,1.52144281e-16 7.5,2.02870812e-16 C6.66579723,2.53951e-16 6,0.668482007 6,1.49309635 L6,6 Z"/>
</svg>
