<svg xmlns="http://www.w3.org/2000/svg" width="64" height="64" viewBox="0 0 64 64">
  <path fill="#303036" fill-rule="evenodd" d="M33.5851065,37.0497722 C38.455813,35.9178042 42.0851065,31.5502888 42.0851065,26.3351065 C42.0851065,20.2599742 37.1602387,15.3351065 31.0851065,15.3351065 C25.0099742,15.3351065 20.0851065,20.2599742 20.0851065,26.3351065 C20.0851065,31.5502888 23.7144,35.9178042 28.5851065,37.0497722 L28.5851065,44.8265763 C28.5851065,45.9331561 29.4827225,46.8351065 30.589988,46.8351065 L31.580225,46.8351065 C32.6912067,46.8351065 33.5851065,45.9358569 33.5851065,44.8265763 L33.5851065,37.0497722 Z M31.0851065,34.3351065 C26.6668285,34.3351065 23.0851065,30.7533845 23.0851065,26.3351065 C23.0851065,21.9168285 26.6668285,18.3351065 31.0851065,18.3351065 C35.5033845,18.3351065 39.0851065,21.9168285 39.0851065,26.3351065 C39.0851065,30.7533845 35.5033845,34.3351065 31.0851065,34.3351065 Z" transform="rotate(-45 31.085 31.085)"/>
</svg>
