<svg xmlns="http://www.w3.org/2000/svg" width="40" height="40" viewBox="0 0 40 40">
  <path fill="#0CA8EE" fill-rule="evenodd" d="M22.4425432,20.7504827 C22.1974333,19.1776499 21.1969505,18 20,18 C18.8030495,18 17.8025667,19.1776499 17.5574568,20.7504827 L22.4425432,20.7504827 Z M13.8495062,17.2772416 L26.1282132,14.4424787 C26.1276344,14.4320644 26.1273409,14.4215421 26.1273409,14.4109183 L26.1273409,13.4112919 C26.1273409,13.1300314 26.3443253,12.9020247 26.6269282,12.9020247 L26.6509064,12.9020247 C26.9268209,12.9020247 27.1504938,13.1180032 27.1504938,13.4112919 L27.1504938,14.4109183 C27.1504938,14.4421553 27.1478174,14.4727355 27.142672,14.5024194 C27.3645466,14.638664 27.5341717,14.86157 27.598161,15.1387379 C27.7235261,15.6817541 27.3919197,16.2219759 26.8499353,16.3471028 L13.210453,19.4960254 C12.6718542,19.6203707 12.1344791,19.2847568 12.0082399,18.7379548 C11.8828748,18.1949386 12.2144812,17.6547169 12.7564656,17.5295899 L12.8312473,17.5123252 C12.8280215,17.4882394 12.8263533,17.4634878 12.8263533,17.4381596 L12.8263533,16.4385331 C12.8263533,16.1572726 13.0433377,15.9292659 13.3259407,15.9292659 L13.3499189,15.9292659 C13.6258333,15.9292659 13.8495062,16.1452445 13.8495062,16.4385331 L13.8495062,17.2772416 Z M12.7777778,31.7468971 L26.9999595,31.7468971 C31.4110973,31.7468971 35,28.1691234 35,23.7557159 L35,9.99118123 C35,5.58817083 31.4182599,2 26.9999595,2 L13.0000405,2 C8.58890267,2 5,5.5777737 5,9.99118123 L5,30.7550617 L5,35.058988 C5,37.0641996 6.20623365,37.6129981 7.70614401,36.2741004 L12.7777778,31.7468971 Z M9,9.9680378 C9,7.75851428 10.8003523,5.96734156 13.0095579,5.96734156 L26.9904421,5.96734156 C29.2048598,5.96734156 31,7.75232658 31,9.9680378 L31,23.7788593 C31,25.9883828 29.1996477,27.7795555 26.9904421,27.7795555 L13.0095579,27.7795555 C10.7951402,27.7795555 9,25.9945705 9,23.7788593 L9,9.9680378 Z"/>
</svg>
