<svg xmlns="http://www.w3.org/2000/svg" width="16" height="16" viewBox="0 0 16 16">
  <path fill="#616161" fill-rule="evenodd" d="M3.36039763,2.76039761 L2.30577318,1.70577316 C1.91277242,1.31277239 1.60000002,1.44762906 1.60000002,1.99980749 L1.60000002,5.00019251 C1.60000002,5.55628335 2.04762909,6 2.59980752,6 L5.60019253,6 C6.15628338,6 6.28401462,5.68401459 5.89422686,5.29422684 L4.77815115,4.17815113 C5.66710265,3.42670146 6.79944545,3 8.00270322,3 C10.764127,3 13.0027032,5.23857625 13.0027032,8 C13.0027032,10.7614237 10.764127,13 8.00270322,13 C6.06777783,13 4.33279685,11.8914977 3.50207624,10.181293 C3.26076915,9.68451404 2.66243219,9.47741316 2.16565323,9.71872025 C1.66887427,9.96002734 1.4617734,10.5583643 1.70308048,11.0551433 C2.86532001,13.4478461 5.29468584,15 8.00270322,15 C11.8686965,15 15.0027032,11.8659932 15.0027032,8 C15.0027032,4.13400675 11.8686965,1 8.00270322,1 C6.26137301,1 4.62283842,1.64051917 3.36039763,2.76039761 Z"/>
</svg>
