<svg xmlns="http://www.w3.org/2000/svg" width="16" height="16" viewBox="0 0 16 16">
  <path fill="#2ECC71" fill-rule="evenodd" d="M8,15 C11.8659932,15 15,11.8659932 15,8 C15,4.13400675 11.8659932,1 8,1 C4.13400675,1 1,4.13400675 1,8 C1,11.8659932 4.13400675,15 8,15 Z M7.50237959,12.1788546 L4.5179362,9.92845223 C4.07696591,9.59594111 3.98904237,8.96891054 4.32155349,8.52794024 C4.65406461,8.08696995 5.28109518,7.99904641 5.72206548,8.33155753 L7.09350291,9.36568205 L9.9522965,5.43040806 C10.2779173,4.98432561 10.9035064,4.88667214 11.3495888,5.21229292 C11.7956713,5.5379137 11.8933247,6.16350277 11.567704,6.60958522 L7.50237959,12.1788546 Z"/>
</svg>
