<svg xmlns="http://www.w3.org/2000/svg" width="17" height="17" viewBox="0 0 17 17">
  <path fill="#303036" fill-rule="evenodd" d="M13.5507816,0.528673864 C14.0969615,-0.0175059897 14.9833626,-0.0166374323 15.5286402,0.528640165 L16.4718007,1.47180075 C17.017962,2.01796199 17.016889,2.90453734 16.471767,3.44965927 L5.97937049,13.9420558 C5.43319064,14.4882357 4.54678957,14.4873671 4.00151197,13.9420895 L3.05835139,12.9989289 C2.51219015,12.4527677 2.51326316,11.5661924 3.05838509,11.0210704 L13.5507816,0.528673864 Z M0.653646773,14.3101629 C0.897846351,13.5775676 1.53944403,13.4273165 2.08472163,13.9725941 L3.02788222,14.9157547 C3.57404346,15.4619159 3.42588763,16.101637 2.6903134,16.3468296 L0.961787626,16.9230075 C0.229192276,17.1672071 -0.167723688,16.7742629 0.0774688533,16.0386887 L0.653646773,14.3101629 Z"/>
</svg>
